<svg height="512pt" viewBox="0 -54 512 511" width="512pt" xmlns="http://www.w3.org/2000/svg"><path d="m139.867188 149.832031h-97.59375c-8.835938 0-16 7.164063-16 16v220.785157c0 8.835937 7.164062 16 16 16h97.59375c8.835937 0 16-7.164063 16-16v-220.785157c0-8.835937-7.164063-16-16-16zm0 0" fill="#ffe795"/><path d="m304.800781 75.164062h-97.59375c-8.835937 0-16 7.164063-16 16v295.453126c0 8.835937 7.164063 16 16 16h97.59375c8.835938 0 16-7.164063 16-16v-295.453126c0-8.835937-7.164062-16-16-16zm0 0" fill="#c8fdfa"/><path d="m469.730469.5h-97.59375c-8.835938 0-15.996094 7.164062-15.996094 16v370.117188c0 8.835937 7.160156 16 15.996094 16h97.59375c8.835937 0 16-7.164063 16-16v-370.117188c0-8.835938-7.160157-16-16-16zm0 0" fill="#fc5356"/><path d="m139.867188 149.832031h-48.796876v252.785157h48.796876c8.835937 0 16-7.164063 16-16v-220.785157c0-8.835937-7.164063-16-16-16zm0 0" fill="#ffd330"/><path d="m304.800781 75.164062h-48.804687v327.453126h48.804687c8.835938 0 16-7.164063 16-16v-295.453126c0-8.835937-7.164062-16-16-16zm0 0" fill="#85eef2"/><path d="m469.730469.5h-48.796875v402.117188h48.796875c8.835937 0 16-7.164063 16-16v-370.117188c0-8.835938-7.160157-16-16-16zm0 0" fill="#f70b57"/><path d="m496 402.617188h-480c-8.835938 0-16-7.164063-16-16 0-8.835938 7.164062-16 16-16h480c8.835938 0 16 7.164062 16 16 0 8.835937-7.164062 16-16 16zm0 0" fill="#45686e"/><path d="m496 370.617188h-240.003906v32h240.003906c8.835938 0 16-7.164063 16-16 0-8.835938-7.164062-16-16-16zm0 0" fill="#2a3b3b"/></svg>