<svg id="Capa_1" enable-background="new 0 0 512 512" height="512" viewBox="0 0 512 512" width="512" xmlns="http://www.w3.org/2000/svg" xmlns:xlink="http://www.w3.org/1999/xlink"><linearGradient id="SVGID_1_" gradientUnits="userSpaceOnUse" x1="256" x2="256" y1="345" y2="0"><stop offset="0" stop-color="#5558ff"/><stop offset="1" stop-color="#00c0ff"/></linearGradient><linearGradient id="SVGID_2_" gradientUnits="userSpaceOnUse" x1="218" x2="218" y1="512" y2="60"><stop offset="0" stop-color="#addcff"/><stop offset=".5028" stop-color="#eaf6ff"/><stop offset="1" stop-color="#eaf6ff"/></linearGradient><g><g><g><g><g><path d="m75 271c-5.133 0-10.15.517-15 1.5l-9 19.5v53h49v-54l-10-20zm422-271h-482c-8.284 0-15 6.716-15 15v180c0 8.284 6.716 15 15 15h482c8.284 0 15-6.716 15-15v-180c0-8.284-6.716-15-15-15z" fill="url(#SVGID_1_)"/></g></g></g></g><g><g><path d="m165 271h-15v-121c0-16.568-13.431-30-30-30s-30 13.432-30 30v166c0 8.284-6.716 15-15 15s-15-6.716-15-15v-43.5c-34.088 6.909-59.929 36.888-59.999 72.967-.083 42.402 9.747 84.57 28.416 121.906l1.583 3.168v26.459c0 8.284 6.716 15 15 15h150c8.284 0 15-6.716 15-15v-26.459l1.584-3.167c18.668-37.336 28.498-79.502 28.415-121.906-.08-41.213-33.786-74.468-74.999-74.468zm121-151h-91c-8.284 0-15 6.716-15 15s6.716 15 15 15h91c8.284 0 15-6.716 15-15s-6.716-15-15-15zm0-60h-211c-8.284 0-15 6.716-15 15s6.716 15 15 15h211c8.284 0 15-6.716 15-15s-6.716-15-15-15zm145.606 19.394c-5.857-5.858-15.355-5.858-21.213 0l-34.393 34.393-4.394-4.393c-5.857-5.858-15.355-5.858-21.213 0s-5.858 15.355 0 21.213l15 15c2.929 2.929 6.768 4.393 10.607 4.393s7.678-1.464 10.606-4.394l45-45c5.858-5.857 5.858-15.355 0-21.212z" fill="url(#SVGID_2_)"/></g></g></g></svg>