<svg id="Capa_1" enable-background="new 0 0 512 512" height="512" viewBox="0 0 512 512" width="512" xmlns="http://www.w3.org/2000/svg" xmlns:xlink="http://www.w3.org/1999/xlink"><linearGradient id="SVGID_1_" gradientUnits="userSpaceOnUse" x1="256" x2="256" y1="496" y2="46"><stop offset="0" stop-color="#5558ff"/><stop offset="1" stop-color="#00c0ff"/></linearGradient><linearGradient id="SVGID_2_" gradientUnits="userSpaceOnUse" x1="256" x2="256" y1="406" y2="16"><stop offset="0" stop-color="#addcff"/><stop offset=".5028" stop-color="#eaf6ff"/><stop offset="1" stop-color="#eaf6ff"/></linearGradient><g><g><g><path d="m488 46h-464l-24 90v345c0 8.28 6.72 15 15 15h482c8.28 0 15-6.72 15-15v-345z" fill="url(#SVGID_1_)"/></g></g><g><g><path d="m437 286h-20.516l-26.068-52.136c-3.704-7.41-12.714-10.413-20.124-6.708s-10.413 12.715-6.708 20.125l19.36 38.72h-71.888l19.36-38.72c3.705-7.41.702-16.419-6.708-20.125-7.406-3.703-16.419-.702-20.124 6.708l-26.068 52.136h-20.516c-4.821 0-9.35 2.318-12.169 6.229s-3.586 8.939-2.062 13.514l30 90c2.043 6.126 7.775 10.257 14.231 10.257h120c6.456 0 12.188-4.131 14.23-10.256l30-90c1.524-4.575.758-9.603-2.062-13.514s-7.347-6.23-12.168-6.23zm-240-30h-122c-8.284 0-15 6.716-15 15s6.716 15 15 15h122c8.284 0 15-6.716 15-15s-6.716-15-15-15zm0 60h-122c-8.284 0-15 6.716-15 15s6.716 15 15 15h122c8.284 0 15-6.716 15-15s-6.716-15-15-15zm0 60h-122c-8.284 0-15 6.716-15 15s6.716 15 15 15h122c8.284 0 15-6.716 15-15s-6.716-15-15-15zm300-360h-482c-8.28 0-15 6.72-15 15v105h512v-105c0-8.28-6.72-15-15-15zm-240 75h-182c-8.284 0-15-6.716-15-15s6.716-15 15-15h182c8.284 0 15 6.716 15 15s-6.716 15-15 15zm60 0c-8.284 0-15-6.716-15-15s6.716-15 15-15 15 6.716 15 15-6.716 15-15 15zm60 0c-8.284 0-15-6.716-15-15s6.716-15 15-15 15 6.716 15 15-6.716 15-15 15zm60 0c-8.284 0-15-6.716-15-15s6.716-15 15-15 15 6.716 15 15-6.716 15-15 15z" fill="url(#SVGID_2_)"/></g></g></g></svg>