<svg id="Capa_1" enable-background="new 0 0 512.001 512.001" height="512" viewBox="0 0 512.001 512.001" width="512" xmlns="http://www.w3.org/2000/svg" xmlns:xlink="http://www.w3.org/1999/xlink"><linearGradient id="SVGID_1_" gradientUnits="userSpaceOnUse" x1="278.501" x2="278.501" y1="512.001" y2="0"><stop offset="0" stop-color="#00b59c"/><stop offset="1" stop-color="#9cffac"/></linearGradient><linearGradient id="SVGID_2_" gradientUnits="userSpaceOnUse" x1="226.001" x2="226.001" y1="512.001" y2="91.001"><stop offset="0" stop-color="#c3ffe8"/><stop offset=".9973" stop-color="#f0fff4"/></linearGradient><g><g><g><path d="m455.136.583c-6.432-1.844-13.309.794-16.855 6.469-5.455 8.728-14.487 13.734-24.78 13.734s-19.325-5.006-24.78-13.734c-2.741-4.386-7.548-7.05-12.72-7.05s-9.979 2.664-12.72 7.05c-5.455 8.728-14.487 13.734-24.78 13.734s-19.325-5.006-24.78-13.734c-2.741-4.386-7.548-7.05-12.72-7.05s-9.979 2.664-12.72 7.05c-5.455 8.728-14.487 13.734-24.78 13.734s-19.325-5.006-24.78-13.734c-2.741-4.386-7.548-7.05-12.72-7.05s-9.979 2.664-12.72 7.05c-5.455 8.728-14.487 13.734-24.78 13.734s-19.325-5.006-24.78-13.734c-3.547-5.675-10.423-8.314-16.855-6.469s-10.865 7.727-10.865 14.419v377l-45 120h300c41.355 0 75-33.645 75-75v-422c0-6.692-4.433-12.575-10.865-14.419z" fill="url(#SVGID_1_)"/></g></g><g><g><path d="m211.001 362.001h180c8.284 0 15-6.716 15-15s-6.716-15-15-15h-180c-8.284 0-15 6.716-15 15s6.716 15 15 15zm90-121c-8.271 0-15-6.729-15-15 0-8.284-6.716-15-15-15s-15 6.716-15 15c0 19.555 12.541 36.228 30 42.42v18.58c0 8.284 6.716 15 15 15s15-6.716 15-15v-18.58c17.459-6.192 30-22.865 30-42.42 0-24.813-20.187-45-45-45-8.271 0-15-6.729-15-15s6.729-15 15-15 15 6.729 15 15c0 8.284 6.716 15 15 15s15-6.716 15-15c0-19.555-12.541-36.228-30-42.42v-17.58c0-8.284-6.716-15-15-15s-15 6.716-15 15v17.58c-17.459 6.192-30 22.865-30 42.42 0 24.813 20.187 45 45 45 8.271 0 15 6.729 15 15s-6.729 15-15 15zm90 151h-180c-8.284 0-15 6.716-15 15s6.716 15 15 15h180c8.284 0 15-6.716 15-15s-6.716-15-15-15zm-345 15v60c0 24.853 20.147 45 45 45s45-20.147 45-45v-75h-75c-8.285 0-15 6.716-15 15z" fill="url(#SVGID_2_)"/></g></g></g></svg>