<svg enable-background="new 0 0 32 32" height="512" viewBox="0 0 32 32" width="512" xmlns="http://www.w3.org/2000/svg"><g id="BG"><path d="m26 32h-20c-3.314 0-6-2.686-6-6v-20c0-3.314 2.686-6 6-6h20c3.314 0 6 2.686 6 6v20c0 3.314-2.686 6-6 6z" fill="#fff9dd"/></g><g id="Layer_1"><path d="m15.333 18c-1.103 0-2-.897-2-2s.897-2 2-2h3.333v-4.167c.001-1.011-.822-1.833-1.833-1.833h-7c-1.011 0-1.833.822-1.833 1.833v12.333c0 1.012.822 1.834 1.833 1.834h7c1.011 0 1.833-.822 1.833-1.833v-4.167z" fill="#ffd200"/><path d="m20.411 19.283c-.249-.104-.411-.347-.411-.616v-2h-4.667c-.368 0-.667-.299-.667-.667s.299-.667.667-.667h4.667v-2c0-.27.162-.513.411-.616s.536-.046.727.145l2.667 2.667c.26.26.26.682 0 .943l-2.667 2.667c-.191.19-.477.247-.727.144z" fill="#ffe777"/></g></svg>