<?xml version="1.0" encoding="iso-8859-1"?>
<!-- Generator: Adobe Illustrator 19.0.0, SVG Export Plug-In . SVG Version: 6.00 Build 0)  -->
<svg version="1.1" id="Capa_1" xmlns="http://www.w3.org/2000/svg" xmlns:xlink="http://www.w3.org/1999/xlink" x="0px" y="0px"
	 viewBox="0 0 512 512" style="enable-background:new 0 0 512 512;" xml:space="preserve">
<linearGradient id="SVGID_1_" gradientUnits="userSpaceOnUse" x1="32" y1="258" x2="480" y2="258" gradientTransform="matrix(1 0 0 -1 0 514)">
	<stop  offset="0" style="stop-color:#00F2FE"/>
	<stop  offset="0.021" style="stop-color:#03EFFE"/>
	<stop  offset="0.293" style="stop-color:#24D2FE"/>
	<stop  offset="0.554" style="stop-color:#3CBDFE"/>
	<stop  offset="0.796" style="stop-color:#4AB0FE"/>
	<stop  offset="1" style="stop-color:#4FACFE"/>
</linearGradient>
<path style="fill:url(#SVGID_1_);" d="M144,326c11.046,0,20,8.954,20,20l0,0c0,11.046-8.954,20-20,20s-20-8.954-20-20l0,0
	C124,334.954,132.954,326,144,326z M199,346L199,346c0,11.046,8.954,20,20,20s20-8.954,20-20l0,0c0-11.046-8.954-20-20-20
	S199,334.954,199,346z M274,346L274,346c0,11.046,8.954,20,20,20s20-8.954,20-20l0,0c0-11.046-8.954-20-20-20S274,334.954,274,346z
	 M350,346L350,346c0,11.046,8.954,20,20,20s20-8.954,20-20l0,0c0-11.046-8.954-20-20-20S350,334.954,350,346z M440,342v-74
	c0-22.056-17.944-40-40-40H112c-22.056,0-40,17.944-40,40v164c0,22.056,17.944,40,40,40h288c22.056,0,40-17.944,40-40
	c0-11.046,8.954-20,20-20s20,8.954,20,20c0,44.112-35.888,80-80,80H112c-44.112,0-80-35.888-80-80V268c0-44.112,35.888-80,80-80
	h23.963v-70.534C135.963,52.695,189.795,0,255.963,0s120,52.695,120,117.466V188H400c44.112,0,80,35.888,80,80v74
	c0,11.046-8.954,20-20,20S440,353.046,440,342z M175.963,188h160v-70.534c0-42.715-35.888-77.466-80-77.466s-80,34.751-80,77.466
	L175.963,188L175.963,188z"/>
<g>
</g>
<g>
</g>
<g>
</g>
<g>
</g>
<g>
</g>
<g>
</g>
<g>
</g>
<g>
</g>
<g>
</g>
<g>
</g>
<g>
</g>
<g>
</g>
<g>
</g>
<g>
</g>
<g>
</g>
</svg>
