<svg enable-background="new 0 0 32 32" height="512" viewBox="0 0 32 32" width="512" xmlns="http://www.w3.org/2000/svg"><g id="BG"><path d="m26 32h-20c-3.314 0-6-2.686-6-6v-20c0-3.314 2.686-6 6-6h20c3.314 0 6 2.686 6 6v20c0 3.314-2.686 6-6 6z" fill="#ffe6e2"/></g><g id="Layer_1"><circle cx="11.833" cy="10" fill="#fc573b" r="2"/><path d="m13 12.667h-2.333c-1.195 0-2.167.972-2.167 2.167v2.666c0 .837.566 1.536 1.333 1.755v3.745c0 .552.448 1 1 1s1-.448 1-1c0 .552.448 1 1 1s1-.448 1-1v-3.745c.767-.219 1.333-.919 1.333-1.755v-2.667c.001-1.194-.971-2.166-2.166-2.166z" fill="#fc573b"/><path d="m22.341 11.633-2.333-2.167c-.094-.088-.216-.133-.34-.133-.33 0-.5.281-.5.499v1.5h-2.668c-.368 0-.667.299-.667.667s.298.667.667.667h2.667v1.5c0 .277.225.5.5.5.124 0 .246-.046.34-.133l2.333-2.167c.102-.095.16-.228.16-.367s-.058-.271-.159-.366z" fill="#fd907e"/></g></svg>