<svg id="Capa_1" enable-background="new 0 0 512 512" height="512" viewBox="0 0 512 512" width="512" xmlns="http://www.w3.org/2000/svg" xmlns:xlink="http://www.w3.org/1999/xlink"><linearGradient id="SVGID_1_" gradientUnits="userSpaceOnUse" x1="227.5" x2="227.5" y1="452" y2="121"><stop offset="0" stop-color="#a93aff"/><stop offset="1" stop-color="#ff81ff"/></linearGradient><linearGradient id="SVGID_2_" gradientUnits="userSpaceOnUse" x1="301.5" x2="301.5" y1="512" y2="0"><stop offset="0" stop-color="#ffbef9"/><stop offset="1" stop-color="#fff1ff"/></linearGradient><g><g><g><path d="m311 289c-1.736-17.929-10-88.404-10-153 0-8.284-6.716-15-15-15h-241c-8.284 0-15 6.716-15 15 0 112.434-26.8 280.964-29.313 296.512-1.413 4.504-.623 9.417 2.142 13.255 2.819 3.914 7.348 6.233 12.171 6.233h440v-163z" fill="url(#SVGID_1_)"/></g></g><g><g><path d="m211 75v121c0 8.284 6.716 15 15 15s15-6.716 15-15v-121c0-41.355-33.645-75-75-75s-75 33.645-75 75v121c0 8.284 6.716 15 15 15s15-6.716 15-15v-121c0-24.813 20.187-45 45-45s45 20.187 45 45zm300.232 417.264-.11-.331c-2.14-8.756-29.122-120.892-29.122-204.933 0-8.284-6.716-15-15-15h-241c-8.284 0-15 6.716-15 15 0 84.02-26.968 196.12-29.12 204.926l-.107.323c-1.527 4.575-.763 9.605 2.057 13.518 2.818 3.914 7.347 6.233 12.17 6.233h301c4.82 0 9.347-2.316 12.166-6.227 2.82-3.909 3.589-8.935 2.066-13.509zm-165.232-70.264c-41.355 0-75-33.645-75-75 0-8.284 6.716-15 15-15s15 6.716 15 15c0 24.813 20.187 45 45 45s45-20.187 45-45c0-8.284 6.716-15 15-15s15 6.716 15 15c0 41.355-33.645 75-75 75z" fill="url(#SVGID_2_)"/></g></g></g></svg>