<svg id="Layer_1" enable-background="new 0 0 512.019 512.019" height="512" viewBox="0 0 512.019 512.019" width="512" xmlns="http://www.w3.org/2000/svg" xmlns:xlink="http://www.w3.org/1999/xlink"><linearGradient id="SVGID_1_" gradientUnits="userSpaceOnUse" x1="256.01" x2="256.01" y1=".005" y2="512.014"><stop offset="0" stop-color="#8df49b"/><stop offset="1" stop-color="#589cf9"/></linearGradient><path d="m326.664 512.014c-1.267 0-2.539-.005-3.821-.017-39.457-.349-79.928-12.098-120.287-34.922-31.69-17.921-63.545-42.794-94.678-73.928-70.942-70.941-107.231-142.93-107.858-213.965-.398-45.018 4.718-110.512 53.524-159.319 19.071-19.071 42.863-29.674 66.992-29.855l.642-.003h.167c29.204 0 56.321 15.979 70.787 41.733l16.308 29.033.278.579c8.29 17.27 12.348 30.535 13.158 43.011 1.159 17.847-4.603 33.291-17.125 45.906l-45.317 46.973c6.736 18.632 23.973 58.805 56.728 91.631 32.425 32.354 71.517 48.859 90.035 55.352l45.428-47.148c12.729-12.705 27.831-18.769 44.864-18.028 13.087.571 26.884 4.951 44.733 14.201l.593.32 28.473 15.993c25.802 14.494 41.793 41.686 41.732 70.967l-.004.704c-.18 24.053-10.782 47.845-29.854 66.916-21.196 21.196-47.924 36.292-79.442 44.866-22.237 6.049-47.153 9-76.056 9zm-205.333-472.009c-.028 0-.055 0-.083 0l-.42.002c-13.549.102-27.403 6.544-38.999 18.14-38.174 38.174-42.145 92.865-41.811 130.681.532 60.179 32.879 122.77 96.143 186.034 63.922 63.923 126.85 96.604 187.035 97.136 37.681.334 92.22-3.674 130.681-42.136 11.597-11.596 18.039-25.449 18.141-39.007l.002-.483c.03-14.734-8.14-28.532-21.322-35.937l-28.173-15.825c-27.777-14.336-35.757-10.053-42.516-3.352l-61.62 63.961-11.231-2.815c-2.721-.682-67.226-17.296-119.266-69.236l-.027-.027c-51.817-51.918-69.756-117.195-70.495-119.949l-2.929-10.925 61.866-64.123c5.846-5.858 10.391-14.005-3.378-42.917l-15.671-27.9c-7.393-13.157-21.153-21.322-35.927-21.322zm320.394 30.295c-45.33-45.33-105.6-70.294-169.706-70.294v40c110.28 0 200 89.72 200 200h40c0-64.107-24.964-124.377-70.294-169.706zm-169.706 89.705v40c22.056 0 40 17.944 40 40h40c0-44.112-35.888-80-80-80zm0-80v40c66.168 0 120 53.832 120 120h40c0-88.224-71.775-160-160-160z" fill="url(#SVGID_1_)"/></svg>